<svg xmlns="http://www.w3.org/2000/svg" xmlns:xlink="http://www.w3.org/1999/xlink" xml:space="preserve" version="1.1" style="shape-rendering:geometricPrecision;text-rendering:geometricPrecision;image-rendering:optimizeQuality;" viewBox="0 0 50000 62500" x="0px" y="0px" fill-rule="evenodd" clip-rule="evenodd"><defs><style type="text/css">
   
    .fil0 {fill:black;fill-rule:nonzero}
   
  </style></defs><g><path class="fil0" d="M9312.45 23884.97c-41.6,1036.61 -936.55,1809.69 -1954.72,1788.88 -1053.15,-21.73 -1928.32,-879.95 -1892.83,-1946.24 34.53,-1037.26 926.58,-1821.74 1949.87,-1800.47 1065.38,22.3 1940.63,884.09 1897.68,1957.83zm30030.06 5082.83c-2422.84,-499.63 -4620.33,-222.09 -6950.29,510.34 -1369.44,430.61 -3053.85,277.05 -4222.79,-566.02 -1786.36,-1208.52 -3731.09,-1359.57 -5557.05,-453.19 -1197.08,594.19 -1757.58,1228.32 -3227.19,1259.72 -777.84,16.62 -1517.6,-185.82 -2384.71,-443.35 -2390.76,-710.1 -5315.7,-782.34 -7677.86,68.88 -887.08,362.78 -1894.98,454.59 -2834.12,283.91 -1884.84,-342.59 -2499.85,-1746.78 -4861.86,-1731.66 -314.21,1.24 -316.08,-476.5 -1.88,-477.73 2487.24,-15.9 3084.97,1400.52 4948.05,1739.14 943.61,171.5 1708.84,53.39 2579.55,-261.18 998.42,-411.55 1721.82,-1159.94 2057.69,-2166.25 75.62,-226.62 106.79,-218.29 -110.45,-172.29 -59.03,12.5 -118,25.48 -176.91,38.93 -203.88,46.57 -146.98,61.74 -242.2,253.22 -105.45,212.08 -229.35,406.35 -368.84,582.78 -509.84,644.89 -1224.99,1050.87 -2008.31,1219.38 -2884.36,620.47 -3696.85,-1890.2 -6727.46,-1872.71 -314.21,1.24 -316.08,-476.5 -1.88,-477.74 3028.26,-17.49 4041.62,2438.86 6630.04,1882.07 678.95,-146.05 1296.32,-494.77 1732.91,-1047.02 273.71,-346.17 318.36,-377.86 -95.22,-235.24 -795.96,274.54 -1571.42,643.18 -2431.84,643.18 -1061.88,0 -2026.42,-418.11 -2727.43,-1094.08 -1073.93,-1035.59 -1434.51,-2595.09 -908.16,-3970.95 201.16,-525.86 241.74,-368.2 -359.04,-210.43 -612.71,160.88 -1250.39,206.84 -1841.26,203.42 -314.2,-1.24 -312.33,-478.97 1.88,-477.74 553.97,3.2 1149.81,-39.35 1717.59,-188.44 869.1,-228.21 1125.83,-520.66 1727.95,-973.6 1141.32,-858.71 2426.48,-956.89 3688,-535.3 3092.44,1033.43 5612.7,1284.63 8752.09,138.8 1468.49,-536.01 2828.84,-573.28 4105.47,408.12 1975,1517.93 4791.64,1714.58 6758.58,82.15 1154.58,-958.32 2569.79,-1071.99 3919.3,-590.79 1487.53,530.42 2870.9,857.5 4458.33,842.22 2593.75,-25.09 4210.73,-1123.31 5916.87,-1123.31 1050.36,0 1906.3,375.33 2688.42,1043.93 412.91,352.96 900.88,573.78 1411.24,707.78 567.78,149.09 1163.62,191.64 1717.59,188.44 314.21,-1.23 316.08,476.5 1.88,477.74 -590.87,3.42 -1228.55,-42.54 -1841.26,-203.42 -91.33,-23.98 -182.1,-50.52 -272.08,-79.78 -339.63,-110.49 -269.34,-142.12 -129.21,184.08 169.48,394.43 271.85,822.79 293.16,1271.59 99.95,2107.43 -1585.49,3808.4 -3659.73,3895.12 -1069.85,44.58 -1856.64,-403.83 -2821.54,-718.38 -225.1,-73.35 -220.96,-106.96 -83.67,103.99 430.8,661.92 1104.05,1090.08 1884.29,1257.92 1026.65,220.84 2133.28,-26.73 2982.09,-639.37 1219.93,-880.46 2141.15,-1251.4 3647.95,-1242.7 314.2,1.24 312.33,478.98 -1.88,477.74 -1443.91,-8.34 -2225.6,344.12 -3396.37,1173.42 -952.56,674.74 -2186.27,945.55 -3331.09,699.29 -1077.08,-231.71 -1951.2,-891.46 -2412.47,-1875.41 -84.08,-179.35 -28.96,-162.37 -222.89,-205.18 -56.55,-12.49 -113.09,-24.5 -169.57,-36.04 -207.36,-42.34 -183.49,-58.36 -114.51,155.56 380.64,1180.19 1291.69,1994.54 2474.14,2348.29 1539.44,460.55 2693.68,138.71 3973.62,-678.37 1056.5,-674.55 1894.8,-950.61 3150.26,-942.58 314.2,1.23 312.33,478.97 -1.88,477.73 -1165.7,-7.46 -1912.96,243.53 -2893.47,870.47 -1312.32,838.95 -2831.36,1293.77 -4367.16,739.43 -597.28,-215.45 -1145.11,-406.91 -1783.41,-538.53zm-5217.58 -1254.2c202.37,-279.35 367.05,-599.5 483.17,-961.92 78.69,-245.64 110,-235.26 -123.82,-184.84 -77.03,16.6 -153.97,34.03 -230.8,52.26 -252.99,60.01 -181.41,20 -283.86,247.23 -79.5,176.35 -177.03,341.06 -290.17,493.62 -1228.51,1656.71 -3874.65,1630.27 -5442.56,470.8 -2006.96,-1345.41 -4046.37,-1430.93 -6057.52,-256.43 -1036.7,605.47 -1474.6,1045.67 -2754.84,1101.38 -1383.48,60.2 -2814,-535.7 -3403.23,-1860.32 -83.57,-187.86 -26,-158.65 -228.52,-210.78 -104.08,-26.79 -208.05,-51.56 -311.74,-72.25 -224.71,-44.82 -193.78,-50.9 -120.38,174.24 119.86,367.71 288.17,692.93 494.01,977.06 788.69,1088.65 2203.15,1613.42 3549.69,1548.13 1417.08,-68.69 1814.31,-609.59 2969.41,-1189.33 1987.2,-997.36 4124.2,-839.76 6064.07,472.82 1653.54,1181.42 4447.02,910.02 5687.09,-801.67zm274.96 751.68c1531.91,-253.81 3114.95,-295.72 4624.1,-43.43 416.69,69.63 345.95,104.41 91.67,-187.75 -406.51,-467.1 -686.54,-1015.83 -845.29,-1619.23 -60.42,-229.65 -4.14,-192.64 -248.2,-221.61 -864.56,-102.67 -1734.71,-97.56 -2597.73,12.29 -302.98,38.55 -224.51,-0.87 -300.58,286.45 -131.85,497.95 -342.15,931.34 -611.12,1302.62 -72.09,99.52 -148.38,194.51 -228.44,285.03 -267.94,302.91 -327.23,259 115.59,185.63zm8979.51 -4678.85c-4.62,-171.5 279,-172.06 285.3,-0.69 21.13,574.77 -488.11,1008.7 -1016.75,1010.35 -188.52,0 -188.52,-286.64 0,-286.64 446.22,-1.71 740.9,-371.71 731.45,-723.02zm-11541.68 40.25c-11.89,542.81 -463.05,958.92 -997.66,969.21 -214.13,3.98 -220.75,-282.5 -4.46,-286.6 379.77,-7.58 704.68,-299.28 714.36,-686.41 5.74,-229.27 292.53,-219.23 287.76,3.8zm240.51 -3042.32c-1173.11,-423.27 -2385.03,-338.91 -3413.06,484.29 -1532.84,1226.91 -1632.46,3480.88 -225.59,4837.51 614.58,592.63 1461.76,959.19 2395.83,959.19 1000.15,0 2163.32,-627.86 3184.34,-881.64 387.96,-96.42 780.66,-173.71 1176.42,-230.18 1606.58,-229.21 3210.08,-105.88 4768.62,354.05 957.64,282.59 1808.29,798.77 2845.61,755.62 1806.46,-75.46 3287.49,-1553.17 3202.36,-3392.19 -39.44,-848.61 -413.49,-1614.61 -996.88,-2177.16 -614.58,-592.63 -1461.76,-959.19 -2395.82,-959.19 -1628.35,0 -3309.49,1083.99 -5886.28,1120.91 -1638.49,23.46 -3121.32,-317.55 -4655.55,-871.21zm1117.9 6139.6c-777.89,269.96 -1500.67,621.01 -2360.72,621.01 -1061.89,0 -2026.43,-418.11 -2727.44,-1094.08 -1101.71,-1062.37 -1450.03,-2672.4 -869.21,-4068.46 152.77,-367.16 229.67,-325.15 -159.11,-198.3 -1280.26,417.73 -2859.19,411.67 -4117.1,11.13 -437.4,-139.27 -338.49,-180.94 -167.89,234.55 562.04,1368.7 250.14,2954.25 -841.63,4019.71 -656.98,641.15 -1554.48,1050.43 -2552.38,1091.16 -1005.27,40.99 -1772.23,-359.98 -2696.26,-677.85 -175.59,-60.42 -171.71,-72.95 -64.27,91.65 595.48,912.45 1714.75,1295.64 2784.29,1241.87 1160.11,-58.34 1561.19,-475.73 2500.09,-1026.85 2177.39,-1278.06 4414.37,-1188.93 6583.46,267.42 1403.53,981.19 3690.43,1117.6 4787.41,-361.75 200.94,-270.97 186.4,-250.33 -99.24,-151.21zm10795.43 -4452.05c756.6,729.56 768.74,1919.48 14.98,2655.06 -749.76,731.69 -1964.58,725.72 -2716.01,1.14 -756.59,-729.57 -768.71,-1919.48 -14.98,-2655.06 749.75,-731.71 1964.59,-725.72 2716.01,-1.14zm-331.61 344.73c-566.18,-545.96 -1485.84,-552.22 -2050.91,-0.74 -560.2,546.71 -548.1,1426.31 13.1,1967.48 566.19,545.96 1485.83,552.2 2050.92,0.74 560.22,-546.72 548.1,-1426.31 -13.11,-1967.48zm-11495.02 -344.73c756.6,729.56 768.74,1919.48 14.98,2655.06 -749.77,731.69 -1964.58,725.72 -2716.01,1.14 -756.6,-729.57 -768.71,-1919.48 -14.98,-2655.06 749.75,-731.71 1964.59,-725.72 2716.01,-1.14zm-331.61 344.73c-566.18,-545.96 -1485.85,-552.22 -2050.91,-0.74 -560.21,546.71 -548.1,1426.31 13.1,1967.48 566.19,545.96 1485.83,552.2 2050.91,0.74 560.23,-546.72 548.11,-1426.31 -13.1,-1967.48zm-16125.03 5448.46c-84.68,-95.23 -165.31,-195.35 -241.44,-300.44 -265.44,-366.39 -475.69,-792.75 -612.51,-1281.37 -71.4,-254.97 4.99,-258.57 -247.07,-288.79 -869.68,-104.32 -1746.3,-99.35 -2614.72,11.86 -262.01,33.55 -192.91,2.41 -262.03,254.15 -161.59,588.53 -440.95,1128.44 -847.29,1589.97 -274.03,311.24 -264.27,231.08 172.4,160.12 1496.37,-243.22 3072.15,-207.9 4557.29,50.82 451.58,78.67 369.73,112.2 95.37,-196.32zm830.99 -1957.52c955.55,281.98 1804.7,796.23 2836.2,756.01 877.47,-34.32 1666.74,-393.51 2244.07,-956.92 1432.11,-1397.6 1240.46,-3620.04 -307.16,-4857.56 -1112.73,-889.68 -2363.08,-846.38 -3687.89,-362.81 -3233.33,1180.15 -5884.98,934.07 -9073.83,-137.58 -1107.57,-372.18 -2231.05,-289.03 -3233.35,460.38 -352.06,263.22 -644.61,590.83 -862.68,961.29 -754.79,1282.18 -522.03,2892.94 559.43,3935.77 614.58,592.63 1461.76,959.19 2395.82,959.19 920.83,0 1891.51,-520.29 2776.38,-772.76 2106.1,-600.93 4245.94,-606.75 6353.01,14.99zm3701.07 -2486.93c-8.49,546.56 -463.74,968.41 -1004.55,975.35 -205.87,2.47 -209.87,-284.68 -2.23,-286.63 385.49,-5.4 714,-303.22 719.06,-694.75 2.75,-212.23 290.93,-210.72 287.72,6.03zm-11830.73 59.45c-33.82,516.71 -478.92,907.59 -998.6,915.85 -210.17,2.89 -214.85,-283.73 -3.18,-286.62 367.87,-6.26 684.63,-278.64 714.3,-644.49 21.11,-260.35 304.01,-237.4 287.48,15.26zm10853.92 -1953.52c1027.66,29.85 1885.17,849.41 1877.04,1890.35 -8.02,1025.54 -852.19,1827.97 -1861.52,1855.68 -1033.41,28.29 -1943.87,-755.39 -1986.12,-1807.27 -43.99,-1100.79 879.06,-1970.47 1970.6,-1938.76zm-1492.08 1944.03c44.67,777.38 736.06,1345.2 1496.2,1324.4 749.23,-20.86 1382.79,-603.34 1393.18,-1366.04 10.57,-776.23 -620.76,-1386.01 -1384.65,-1421.96 -834.57,-39.04 -1552.84,621.96 -1504.73,1463.6zm-11826.36 -147.82c-39.15,806.73 619.11,1451.27 1415.23,1471.39 766.64,19.04 1446.52,-550.76 1473.2,-1337.19 26.73,-794.91 -621.83,-1423.64 -1406.08,-1451.6 -762.22,-26.92 -1444.63,541.11 -1482.35,1317.4z"/></g><text x="0" y="50015" fill="#000000" font-size="5px" font-weight="bold" font-family="'Helvetica Neue', Helvetica, Arial-Unicode, Arial, Sans-serif">Created by Oleksandr Panasovskyi</text><text x="0" y="50020" fill="#000000" font-size="5px" font-weight="bold" font-family="'Helvetica Neue', Helvetica, Arial-Unicode, Arial, Sans-serif">from the Noun Project</text></svg>